<svg width="69" height="54" viewBox="0 0 69 54" fill="none" xmlns="http://www.w3.org/2000/svg">
<path d="M58.4114 4.72417C54.0136 2.67375 49.2976 1.16306 44.3667 0.297817C44.2769 0.281124 44.1872 0.322856 44.1409 0.406319C43.5344 1.50247 42.8627 2.93248 42.3921 4.05646C37.0886 3.24965 31.8124 3.24965 26.6177 4.05646C26.1471 2.90744 25.4509 1.50247 24.8417 0.406319C24.7954 0.325638 24.7057 0.283906 24.6159 0.297817C19.6878 1.16027 14.9717 2.67096 10.5712 4.72417C10.5331 4.74086 10.5005 4.76868 10.4787 4.80485C1.5335 18.3844 -0.916982 31.63 0.285143 44.7116C0.290582 44.7756 0.325939 44.8368 0.374894 44.8757C6.27673 49.2798 11.9936 51.9534 17.6044 53.7256C17.6942 53.7535 17.7894 53.7201 17.8465 53.645C19.1737 51.8032 20.3568 49.8613 21.3713 47.8192C21.4311 47.6996 21.374 47.5577 21.2516 47.5104C19.375 46.787 17.5881 45.9051 15.8692 44.9035C15.7333 44.8229 15.7224 44.6253 15.8475 44.5307C16.2092 44.2553 16.5709 43.9687 16.9163 43.6794C16.9789 43.6265 17.0659 43.6154 17.1394 43.6488C28.4317 48.8875 40.6569 48.8875 51.816 43.6488C51.8895 43.6126 51.9765 43.6238 52.0418 43.6766C52.3872 43.966 52.7489 44.2553 53.1133 44.5307C53.2385 44.6253 53.2303 44.8229 53.0943 44.9035C51.3754 45.9246 49.5886 46.787 47.7092 47.5076C47.5868 47.5549 47.5324 47.6996 47.5923 47.8192C48.6285 49.8585 49.8116 51.8004 51.1143 53.6422C51.1687 53.7201 51.2666 53.7535 51.3564 53.7256C56.9944 51.9534 62.7113 49.2798 68.6131 44.8757C68.6648 44.8368 68.6974 44.7783 68.7029 44.7144C70.1416 29.5908 66.2932 16.4536 58.5012 4.80763C58.4821 4.76868 58.4495 4.74086 58.4114 4.72417ZM23.0575 36.7464C19.6578 36.7464 16.8565 33.5747 16.8565 29.6798C16.8565 25.7848 19.6034 22.6132 23.0575 22.6132C26.5388 22.6132 29.3129 25.8126 29.2585 29.6798C29.2585 33.5747 26.5116 36.7464 23.0575 36.7464ZM45.9849 36.7464C42.5852 36.7464 39.7839 33.5747 39.7839 29.6798C39.7839 25.7848 42.5308 22.6132 45.9849 22.6132C49.4662 22.6132 52.2403 25.8126 52.1859 29.6798C52.1859 33.5747 49.4662 36.7464 45.9849 36.7464Z" fill="#E2B14F"/>
</svg>
