<svg width="56" height="56" viewBox="0 0 56 56" fill="none" xmlns="http://www.w3.org/2000/svg">
<path d="M28 56C43.464 56 56 43.464 56 28C56 12.536 43.464 0 28 0C12.536 0 0 12.536 0 28C0 43.464 12.536 56 28 56Z" fill="#E2B14F"/>
<path fill-rule="evenodd" clip-rule="evenodd" d="M12.6744 27.7044C20.8369 24.1481 26.2799 21.8036 29.0034 20.6708C36.7793 17.4365 38.395 16.8747 39.4481 16.8562C39.6798 16.8521 40.1977 16.9095 40.5332 17.1817C40.8164 17.4115 40.8944 17.722 40.9317 17.94C40.9689 18.1579 41.0154 18.6543 40.9785 19.0422C40.5571 23.4697 38.7338 34.214 37.8062 39.1728C37.4137 41.271 36.6409 41.9746 35.8927 42.0434C34.2667 42.1931 33.0319 40.9689 31.4571 39.9365C28.9927 38.3211 27.6005 37.3155 25.2084 35.7391C22.4439 33.9174 24.236 32.9161 25.8115 31.2798C26.2238 30.8515 33.388 24.3351 33.5267 23.744C33.544 23.67 33.5601 23.3945 33.3964 23.2489C33.2327 23.1034 32.9911 23.1532 32.8167 23.1928C32.5695 23.2488 28.6327 25.851 21.0061 30.9991C19.8887 31.7664 18.8765 32.1403 17.9696 32.1207C16.9699 32.0991 15.0468 31.5554 13.6171 31.0907C11.8636 30.5207 10.47 30.2194 10.5914 29.2513C10.6546 28.7471 11.3489 28.2315 12.6744 27.7044Z" fill="black"/>
</svg>
