<svg width="60" height="50" viewBox="0 0 60 50" fill="none" xmlns="http://www.w3.org/2000/svg">
<path d="M18.8688 49.3767C41.5104 49.3767 53.8944 30.6183 53.8944 14.3511C53.8944 13.8183 53.8944 13.2879 53.8584 12.7599C56.2676 11.0172 58.3473 8.85957 60 6.38786C57.7535 7.38386 55.3701 8.03674 52.9296 8.32466C55.4995 6.78638 57.4229 4.36661 58.3416 1.51586C55.9252 2.94988 53.2816 3.96042 50.5248 4.50386C48.6688 2.5303 46.2141 1.22346 43.5405 0.785567C40.8669 0.347675 38.1236 0.803143 35.7349 2.08149C33.3463 3.35983 31.4456 5.38979 30.3269 7.85723C29.2082 10.3247 28.9339 13.092 29.5464 15.7311C24.6522 15.4856 19.8644 14.2136 15.4936 11.9979C11.1229 9.7821 7.26691 6.67201 4.176 2.86946C2.60182 5.57944 2.11968 8.78753 2.82775 11.8405C3.53582 14.8935 5.38085 17.5618 7.9872 19.3023C6.02808 19.2449 4.11162 18.7163 2.4 17.7615V17.9175C2.40078 20.7596 3.38463 23.5139 5.18468 25.7134C6.98473 27.9128 9.49015 29.4219 12.276 29.9847C10.4637 30.479 8.56219 30.5512 6.7176 30.1959C7.50454 32.6417 9.03607 34.7805 11.0981 36.3132C13.1601 37.846 15.6496 38.6961 18.2184 38.7447C15.6661 40.7508 12.7433 42.2341 9.61719 43.1097C6.49109 43.9852 3.22304 44.2358 0 43.8471C5.62958 47.4596 12.1798 49.3758 18.8688 49.3671" fill="#E2B14F"/>
</svg>
